<svg width="16" height="16" viewBox="0 0 16 16" fill="none" xmlns="http://www.w3.org/2000/svg">
<path d="M14.6111 7.73317C13.2649 4.6065 10.7324 2.6665 8.00004 2.6665C5.26766 2.6665 2.73521 4.6065 1.38901 7.73317C1.35232 7.81728 1.33337 7.90806 1.33337 7.99984C1.33337 8.09161 1.35232 8.18239 1.38901 8.2665C2.73521 11.3932 5.26766 13.3332 8.00004 13.3332C10.7324 13.3332 13.2649 11.3932 14.6111 8.2665C14.6478 8.18239 14.6667 8.09161 14.6667 7.99984C14.6667 7.90806 14.6478 7.81728 14.6111 7.73317ZM8.00004 11.9998C5.88744 11.9998 3.88814 10.4732 2.73521 7.99984C3.88814 5.5265 5.88744 3.99984 8.00004 3.99984C10.1126 3.99984 12.1119 5.5265 13.2649 7.99984C12.1119 10.4732 10.1126 11.9998 8.00004 11.9998ZM8.00004 5.33317C7.47281 5.33317 6.95742 5.48957 6.51904 5.78258C6.08066 6.0756 5.73898 6.49208 5.53722 6.97935C5.33546 7.46662 5.28267 8.0028 5.38552 8.52008C5.48838 9.03736 5.74227 9.51252 6.11508 9.88546C6.48789 10.2584 6.96288 10.5124 7.47998 10.6153C7.99708 10.7182 8.53307 10.6653 9.02017 10.4635C9.50727 10.2617 9.92361 9.91989 10.2165 9.48136C10.5094 9.04283 10.6658 8.52725 10.6658 7.99984C10.6658 7.29259 10.3849 6.61432 9.885 6.11422C9.38508 5.61412 8.70704 5.33317 8.00004 5.33317ZM8.00004 9.33317C7.73642 9.33317 7.47873 9.25497 7.25954 9.10846C7.04035 8.96195 6.86951 8.75372 6.76863 8.51008C6.66775 8.26645 6.64135 7.99836 6.69278 7.73972C6.74421 7.48108 6.87116 7.2435 7.05756 7.05703C7.24397 6.87056 7.48146 6.74357 7.74001 6.69212C7.99856 6.64068 8.26656 6.66708 8.51011 6.768C8.75366 6.86891 8.96182 7.03981 9.10828 7.25908C9.25474 7.47834 9.33291 7.73613 9.33291 7.99984C9.33291 8.35346 9.19248 8.6926 8.94252 8.94265C8.69256 9.19269 8.35354 9.33317 8.00004 9.33317Z" fill="#A39F9D"/>
</svg>
