<svg width="24" height="24" viewBox="0 0 24 24" fill="none" xmlns="http://www.w3.org/2000/svg">
<path d="M20.0001 8.01673L14.0001 2.76302C13.4501 2.27165 12.738 2 12.0001 2C11.2622 2 10.5501 2.27165 10.0001 2.76302L4.00009 8.01673C3.68246 8.30047 3.42899 8.64853 3.25657 9.03776C3.08414 9.42698 2.99671 9.84842 3.00009 10.274V19.0036C3.00009 19.7983 3.31617 20.5604 3.87877 21.1224C4.44138 21.6843 5.20445 22 6.00009 22H18.0001C18.7957 22 19.5588 21.6843 20.1214 21.1224C20.684 20.5604 21.0001 19.7983 21.0001 19.0036V10.264C21.0021 9.84011 20.9139 9.42059 20.7416 9.0332C20.5692 8.6458 20.3165 8.29935 20.0001 8.01673ZM14.0001 20.0024H10.0001V15.0084C10.0001 14.7435 10.1055 14.4894 10.293 14.3021C10.4805 14.1148 10.7349 14.0096 11.0001 14.0096H13.0001C13.2653 14.0096 13.5197 14.1148 13.7072 14.3021C13.8947 14.4894 14.0001 14.7435 14.0001 15.0084V20.0024ZM19.0001 19.0036C19.0001 19.2685 18.8947 19.5225 18.7072 19.7098C18.5197 19.8972 18.2653 20.0024 18.0001 20.0024H16.0001V15.0084C16.0001 14.2137 15.684 13.4515 15.1214 12.8896C14.5588 12.3276 13.7957 12.012 13.0001 12.012H11.0001C10.2044 12.012 9.44138 12.3276 8.87877 12.8896C8.31616 13.4515 8.00009 14.2137 8.00009 15.0084V20.0024H6.00009C5.73488 20.0024 5.48052 19.8972 5.29299 19.7098C5.10545 19.5225 5.00009 19.2685 5.00009 19.0036V10.264C5.00027 10.1222 5.03069 9.98208 5.08931 9.85291C5.14794 9.72375 5.23343 9.60854 5.3401 9.51494L11.3401 4.27121C11.5226 4.11109 11.7572 4.02278 12.0001 4.02278C12.243 4.02278 12.4776 4.11109 12.6601 4.27121L18.6601 9.51494C18.7668 9.60854 18.8523 9.72375 18.9109 9.85291C18.9695 9.98208 18.9999 10.1222 19.0001 10.264V19.0036Z" fill="#A39F9D"/>
</svg>
