<svg width="12" height="14" viewBox="0 0 12 14" fill="none" xmlns="http://www.w3.org/2000/svg">
<path d="M5.99996 7.66683C5.82315 7.66683 5.65358 7.73707 5.52855 7.86209C5.40353 7.98712 5.33329 8.15669 5.33329 8.3335V10.3335C5.33329 10.5103 5.40353 10.6799 5.52855 10.8049C5.65358 10.9299 5.82315 11.0002 5.99996 11.0002C6.17677 11.0002 6.34634 10.9299 6.47136 10.8049C6.59639 10.6799 6.66663 10.5103 6.66663 10.3335V8.3335C6.66663 8.15669 6.59639 7.98712 6.47136 7.86209C6.34634 7.73707 6.17677 7.66683 5.99996 7.66683ZM9.33329 5.00016V3.66683C9.33329 2.78277 8.9821 1.93493 8.35698 1.30981C7.73186 0.684686 6.88401 0.333496 5.99996 0.333496C5.1159 0.333496 4.26806 0.684686 3.64294 1.30981C3.01782 1.93493 2.66663 2.78277 2.66663 3.66683V5.00016C2.13619 5.00016 1.62749 5.21088 1.25241 5.58595C0.87734 5.96102 0.666626 6.46973 0.666626 7.00016V11.6668C0.666626 12.1973 0.87734 12.706 1.25241 13.081C1.62749 13.4561 2.13619 13.6668 2.66663 13.6668H9.33329C9.86372 13.6668 10.3724 13.4561 10.7475 13.081C11.1226 12.706 11.3333 12.1973 11.3333 11.6668V7.00016C11.3333 6.46973 11.1226 5.96102 10.7475 5.58595C10.3724 5.21088 9.86372 5.00016 9.33329 5.00016ZM3.99996 3.66683C3.99996 3.1364 4.21067 2.62769 4.58575 2.25262C4.96082 1.87754 5.46953 1.66683 5.99996 1.66683C6.53039 1.66683 7.0391 1.87754 7.41417 2.25262C7.78925 2.62769 7.99996 3.1364 7.99996 3.66683V5.00016H3.99996V3.66683ZM9.99996 11.6668C9.99996 11.8436 9.92972 12.0132 9.8047 12.1382C9.67967 12.2633 9.5101 12.3335 9.33329 12.3335H2.66663C2.48981 12.3335 2.32025 12.2633 2.19522 12.1382C2.0702 12.0132 1.99996 11.8436 1.99996 11.6668V7.00016C1.99996 6.82335 2.0702 6.65378 2.19522 6.52876C2.32025 6.40373 2.48981 6.3335 2.66663 6.3335H9.33329C9.5101 6.3335 9.67967 6.40373 9.8047 6.52876C9.92972 6.65378 9.99996 6.82335 9.99996 7.00016V11.6668Z" fill="#A39F9D"/>
</svg>
