<svg width="14" height="12" viewBox="0 0 14 12" fill="none" xmlns="http://www.w3.org/2000/svg">
<path d="M11.6667 0.666504H2.33337C1.80294 0.666504 1.29423 0.877218 0.919161 1.25229C0.544088 1.62736 0.333374 2.13607 0.333374 2.6665V9.33317C0.333374 9.8636 0.544088 10.3723 0.919161 10.7474C1.29423 11.1225 1.80294 11.3332 2.33337 11.3332H11.6667C12.1971 11.3332 12.7058 11.1225 13.0809 10.7474C13.456 10.3723 13.6667 9.8636 13.6667 9.33317V2.6665C13.6667 2.13607 13.456 1.62736 13.0809 1.25229C12.7058 0.877218 12.1971 0.666504 11.6667 0.666504ZM2.33337 1.99984H11.6667C11.8435 1.99984 12.0131 2.07008 12.1381 2.1951C12.2631 2.32012 12.3334 2.48969 12.3334 2.6665L7.00004 5.91984L1.66671 2.6665C1.66671 2.48969 1.73695 2.32012 1.86197 2.1951C1.98699 2.07008 2.15656 1.99984 2.33337 1.99984ZM12.3334 9.33317C12.3334 9.50998 12.2631 9.67955 12.1381 9.80457C12.0131 9.9296 11.8435 9.99984 11.6667 9.99984H2.33337C2.15656 9.99984 1.98699 9.9296 1.86197 9.80457C1.73695 9.67955 1.66671 9.50998 1.66671 9.33317V4.1865L6.65337 7.23317C6.75472 7.29168 6.86968 7.32249 6.98671 7.32249C7.10373 7.32249 7.21869 7.29168 7.32004 7.23317L12.3334 4.1865V9.33317Z" fill="#A39F9D"/>
</svg>
